<svg id="Layer_1" data-name="Layer 1" xmlns="http://www.w3.org/2000/svg" viewBox="0 0 512 512"><defs><style>.cls-1{fill:#fff;}.cls-2{fill:#bbbcde;opacity:0.9;}.cls-3{fill:#89c3eb;}.cls-4{fill:#a0d8ef;}.cls-5{opacity:0.67;}.cls-6{fill:#007bbb;fill-rule:evenodd;}</style></defs><title>Cloud_Play</title><circle class="cls-1" cx="256" cy="256" r="256"/><circle class="cls-2" cx="256" cy="256" r="252.5309"/><path class="cls-3" d="M415.2819,247.44a76.7277,76.7277,0,0,0-41.611-24.284c-3.9406-53.3814-46.7233-95.56-98.744-95.56a95.304,95.304,0,0,0-19.808,2.0931L212.6734,256l42.4455,128.4045H358.4032c42.907,0,77.8169-36.5214,77.8169-81.4092A83.188,83.188,0,0,0,415.2819,247.44Z" transform="translate(0.8811)"/><path class="cls-4" d="M221.9279,143.6692a101.9072,101.9072,0,0,0-31.9032,34.171,64.6892,64.6892,0,0,0-9.1855-.6591c-37.057,0-67.2055,31.54-67.2055,70.3079,0,.8269.0138,1.6537.0442,2.4863a68.5233,68.5233,0,0,0-26.0642,21.7255,71.7961,71.7961,0,0,0-13.5959,42.3958c0,38.7676,30.1485,70.3079,67.2055,70.3079H255.1189V129.6886A96.1264,96.1264,0,0,0,221.9279,143.6692Z" transform="translate(0.8811)"/><g class="cls-5"><path class="cls-6" d="M256,358.4087a82.9459,82.9459,0,1,0-82.9459-82.9459A82.9421,82.9421,0,0,0,256,358.4087Zm-20.7365-122.82c1.9288-2.132,8.0318-2.132,9.9606,0l50.8023,35.9471a5.88,5.88,0,0,1,0,7.7249l-50.8023,36.0759c-1.9288,2.1321-8.0318,2.1321-9.9606,0V235.5888Z" transform="translate(0.8811)"/></g></svg>